<?xml version="1.0" encoding="UTF-8"?>
<svg id="Layer_2" data-name="Layer 2" xmlns="http://www.w3.org/2000/svg" viewBox="0 0 195.39 93.15">
  <defs>
    <style>
      .cls-1 {
        fill: #f0c0c0;
      }

      .cls-2 {
        fill: #fff;
      }

      .cls-3 {
        fill: #ea6a6a;
      }

      .cls-4 {
        fill: #f3aaaa;
      }

      .cls-5 {
        fill: #f9d4d5;
      }

      .cls-6 {
        fill: #f29d9d;
      }

      .cls-7 {
        fill: #a24949;
      }

      .cls-8 {
        fill: #ec7272;
      }

      .cls-9 {
        fill: #565252;
      }

      .cls-10 {
        fill: #e9bcba;
      }

      .cls-11 {
        fill: #f08e8e;
      }

      .cls-12 {
        fill: #ee8181;
      }
    </style>
  </defs>
  <g id="Layer_1-2" data-name="Layer 1">
    <g id="Group_14" data-name="Group 14">
      <path id="Path_47" data-name="Path 47" class="cls-5" d="m65.09,63.39l-22.31,23,6.41,6.63,27.02-27.85-11.12-1.78Z"/>
      <path id="Path_48" data-name="Path 48" class="cls-1" d="m54.08,61.63l-17.05,18.81,5.75,5.95,22.31-23-11-1.75Z"/>
      <path id="Path_49" data-name="Path 49" class="cls-1" d="m109.45,70.46l-11-1.76-23.32,24.05,12.89-.2,21.43-22.1Z"/>
      <path id="Path_50" data-name="Path 50" class="cls-5" d="m87.32,66.93l-25.24,26.02,13.03-.2,23.32-24.05-11.12-1.77Z"/>
      <path id="Path_51" data-name="Path 51" class="cls-1" d="m76.21,65.16l-27.02,27.85.13.13,12.76-.19,25.24-26.02-11.12-1.77Z"/>
    </g>
    <g id="Group_15" data-name="Group 15">
      <path id="Path_52" data-name="Path 52" class="cls-10" d="m44.24,19.3l10.72,11.8,7.82-1.64-14.83-18.5-3.71,8.34Z"/>
      <path id="Path_53" data-name="Path 53" class="cls-5" d="m47.95,10.96l14.83,18.5,9.43-1.98L51.88,2.13l-3.92,8.83Z"/>
      <path id="Path_54" data-name="Path 54" class="cls-5" d="m73.24,0h-10.86l20.29,25.3,9.29-1.94L73.24,0Z"/>
      <path id="Path_55" data-name="Path 55" class="cls-10" d="m52.82,0l-.95,2.13,20.34,25.35,10.46-2.19L62.38,0h-9.56Z"/>
      <path id="Path_56" data-name="Path 56" class="cls-10" d="m101.08,21.45L82.85,0h-9.61l18.73,23.35,9.11-1.9Z"/>
    </g>
    <path id="Path_57" data-name="Path 57" class="cls-6" d="m138.55,8.13v66.51h-70.13l-9-9.72-.71-.76-1.84-1.96-9.01-9.72h-7.25v-29.03h7.25l5.41-2.86,5.22-2.76.15-.08,15.43-8.14,2.81-1.48h61.66Z"/>
    <g id="Group_16" data-name="Group 16">
      <path id="Path_58" data-name="Path 58" class="cls-8" d="m82,8.13c-.04,5.35-4.37,9.67-9.72,9.69h-13.78l.15-.08,15.43-8.14,2.81-1.48h5.1Z"/>
      <path id="Path_59" data-name="Path 59" class="cls-12" d="m81.18,30.3c0,.45-.03.91-.1,1.35-.35,2.62-1.76,4.98-3.9,6.53-1.67,1.19-3.67,1.84-5.72,1.83h-18.4c-5.38-.01-9.73-4.38-9.72-9.76,0-2.55,1.01-5,2.81-6.82h1.71l5.41-2.86h18.19c2.05,0,4.05.64,5.72,1.84,1.74,1.26,3.01,3.07,3.6,5.13.28.89.41,1.82.4,2.75Z"/>
      <path id="Path_60" data-name="Path 60" class="cls-8" d="m81.18,74.64h-12.76l-9-9.72h12.04c5.34-.02,9.7,4.29,9.72,9.63,0,.03,0,.06,0,.09h0Z"/>
      <path id="Path_61" data-name="Path 61" class="cls-8" d="m81.18,52.47c.02,5.34-4.29,9.69-9.63,9.72-.03,0-.06,0-.09,0h-14.59l-9.01-9.72h-4.51c-.03-5.34,4.27-9.69,9.61-9.72.04,0,.07,0,.11,0h18.39c2.05-.01,4.05.63,5.72,1.83,2.12,1.55,3.53,3.9,3.9,6.5.07.46.11.92.1,1.38Z"/>
    </g>
    <g id="Group_17" data-name="Group 17">
      <path id="Path_62" data-name="Path 62" class="cls-1" d="m23.21,1.68l-9.28,14.51h20.89L23.21,1.68Z"/>
      <path id="Path_63" data-name="Path 63" class="cls-1" d="m23.21,74.24l11.6-14.51H13.93l9.28,14.51Z"/>
      <path id="Path_64" data-name="Path 64" class="cls-1" d="m40.62,30.7H4.64l-4.64,7.25,4.64,7.25h35.98v-14.51Z"/>
      <path id="Path_65" data-name="Path 65" class="cls-5" d="m40.62,23.45l-5.8-7.26H13.93l-9.28,14.51h35.98v-7.25Z"/>
      <path id="Path_66" data-name="Path 66" class="cls-5" d="m40.62,45.21H4.64l9.28,14.51h20.89l5.8-7.26v-7.26Z"/>
    </g>
    <g id="Group_18" data-name="Group 18">
      <path id="Path_67" data-name="Path 67" class="cls-4" d="m96.48,17.82c.01.93-.12,1.86-.4,2.75-1.22,4.13-5.01,6.96-9.31,6.97h-18.4c-4.31,0-8.1-2.83-9.31-6.97-.28-.89-.41-1.82-.4-2.75v-.08l15.43-8.14,2.81-1.48h9.87c5.36,0,9.71,4.34,9.71,9.69Z"/>
      <path id="Path_68" data-name="Path 68" class="cls-11" d="m96.48,41.38c0,5.37-4.35,9.72-9.71,9.72h-18.41c-5.37,0-9.72-4.35-9.72-9.72h0c0-5.37,4.35-9.72,9.71-9.72h18.41c5.37,0,9.71,4.35,9.71,9.72h0s0,0,0,0Z"/>
      <path id="Path_69" data-name="Path 69" class="cls-11" d="m59.42,64.92l9,9.72h18.35c5.37,0,9.72-4.35,9.72-9.72s-4.35-9.72-9.72-9.72h-18.39c-2.58,0-5.06,1.03-6.89,2.86-1.15,1.14-1.99,2.56-2.43,4.13-.21.64-.33,1.3-.35,1.96l.71.77Z"/>
    </g>
    <g id="Group_19" data-name="Group 19">
      <path id="Path_70" data-name="Path 70" class="cls-8" d="m111.79,8.13c-.04,5.35-4.37,9.67-9.72,9.69h-18.42c-2.05,0-4.04-.65-5.69-1.86-2.1-1.5-3.5-3.8-3.88-6.35l2.81-1.48h34.9Z"/>
      <path id="Path_71" data-name="Path 71" class="cls-12" d="m110.98,30.29c0,5.37-4.35,9.72-9.72,9.72h-18.41c-5.37,0-9.72-4.35-9.72-9.72h0c0-5.37,4.35-9.72,9.72-9.72h18.41c5.37,0,9.72,4.35,9.72,9.72h0Z"/>
      <path id="Path_72" data-name="Path 72" class="cls-3" d="m110.98,74.64h-37.84c-.01-2.58,1.01-5.06,2.83-6.89.37-.37.77-.7,1.2-1,1.66-1.19,3.65-1.84,5.69-1.84h18.39c5.35-.02,9.7,4.29,9.72,9.64,0,.03,0,.06,0,.08h0Z"/>
      <path id="Path_73" data-name="Path 73" class="cls-8" d="m110.98,52.46c0,5.37-4.35,9.72-9.72,9.72h-18.41c-5.37,0-9.72-4.35-9.72-9.72h0c0-5.37,4.35-9.72,9.71-9.72h18.41c5.37,0,9.72,4.35,9.72,9.71h0Z"/>
    </g>
    <g id="Group_20" data-name="Group 20">
      <path id="Path_74" data-name="Path 74" class="cls-4" d="m126.28,17.84c0,5.37-4.35,9.72-9.72,9.72h-18.41c-5.37,0-9.71-4.35-9.71-9.72h0c0-5.36,4.35-9.71,9.71-9.72h18.41c5.37,0,9.72,4.35,9.72,9.71h0Z"/>
      <path id="Path_75" data-name="Path 75" class="cls-11" d="m126.28,41.38c0,5.37-4.35,9.72-9.72,9.72h-18.41c-5.37,0-9.71-4.35-9.71-9.71h0c0-5.37,4.35-9.72,9.71-9.72h18.41c5.37,0,9.72,4.35,9.72,9.72h0s0,0,0,0Z"/>
      <path id="Path_76" data-name="Path 76" class="cls-11" d="m126.28,64.92c0,5.37-4.35,9.72-9.72,9.72h-18.41c-5.37,0-9.71-4.35-9.71-9.71h0c0-5.37,4.35-9.71,9.71-9.71h18.41c5.36,0,9.71,4.34,9.72,9.71h0s0,0,0,0Z"/>
    </g>
    <g id="Group_21" data-name="Group 21">
      <path id="Path_77" data-name="Path 77" class="cls-8" d="m138.55,8.13v7.01c-1.8,1.72-4.19,2.68-6.68,2.68h-18.42c-5.35-.03-9.68-4.35-9.72-9.69h34.82Z"/>
      <path id="Path_78" data-name="Path 78" class="cls-12" d="m140.77,30.29c0,5.37-4.35,9.72-9.71,9.72h-18.41c-5.37,0-9.72-4.35-9.72-9.72h0c0-5.37,4.35-9.72,9.72-9.72h18.41c5.37,0,9.71,4.35,9.71,9.72h0Z"/>
      <path id="Path_79" data-name="Path 79" class="cls-3" d="m138.55,68.44v6.2h-35.61c-.01-2.58,1.01-5.06,2.83-6.89.37-.37.77-.7,1.2-1,1.65-1.19,3.63-1.84,5.66-1.84h18.42c2.9,0,5.64,1.3,7.49,3.52Z"/>
      <path id="Path_80" data-name="Path 80" class="cls-8" d="m140.77,52.46c0,5.37-4.35,9.72-9.71,9.72h-18.41c-5.37,0-9.72-4.35-9.72-9.72h0c0-5.37,4.35-9.72,9.71-9.72h18.41c5.36,0,9.71,4.35,9.71,9.71h0Z"/>
    </g>
    <g id="Group_22" data-name="Group 22">
      <path id="Path_81" data-name="Path 81" class="cls-4" d="m156.08,17.84c0,5.37-4.35,9.72-9.72,9.72h-18.41c-5.37,0-9.71-4.35-9.71-9.72h0c0-5.36,4.35-9.71,9.71-9.72h18.41c5.37,0,9.72,4.35,9.72,9.71h0Z"/>
      <path id="Path_82" data-name="Path 82" class="cls-11" d="m156.08,41.38c0,5.37-4.35,9.72-9.72,9.72h-18.41c-5.37,0-9.71-4.35-9.71-9.71h0c0-5.37,4.35-9.72,9.71-9.72h18.41c5.37,0,9.72,4.35,9.72,9.72h0Z"/>
      <path id="Path_83" data-name="Path 83" class="cls-11" d="m156.08,64.92c0,5.37-4.35,9.72-9.72,9.72h-18.41c-5.37,0-9.71-4.35-9.71-9.71h0c0-5.37,4.35-9.71,9.71-9.71h18.41c5.36,0,9.71,4.34,9.72,9.71h0Z"/>
    </g>
    <path id="Path_84" data-name="Path 84" class="cls-1" d="m146.97,64.87l2.43,24.58h13.77l-11.33-25.7-4.86,1.12Z"/>
    <path id="Path_85" data-name="Path 85" class="cls-8" d="m195.39,8.13v19.34l-39.29,47.17h-17.55l-9.69-35.46,9.69-31.05h56.84Z"/>
    <path id="Path_86" data-name="Path 86" class="cls-2" d="m168.8,23.84c0,4.01-3.25,7.26-7.25,7.26-4.01,0-7.26-3.25-7.26-7.25,0-4.01,3.25-7.26,7.25-7.26h0c4.01,0,7.25,3.25,7.25,7.25Z"/>
    <path id="Path_87" data-name="Path 87" class="cls-9" d="m165.1,23.84c0,1.96-1.59,3.56-3.55,3.56-1.96,0-3.56-1.59-3.56-3.55,0-1.96,1.59-3.56,3.55-3.56h0c1.96,0,3.55,1.59,3.55,3.55h0Z"/>
    <path id="Path_88" data-name="Path 88" class="cls-5" d="m148.82,67.1l-3.35,24.58h-18.99l15.64-25.7,6.7,1.12Z"/>
    <g id="Group_23" data-name="Group 23">
      <path id="Path_89" data-name="Path 89" class="cls-7" d="m195.39,11.24v7.48l-23.21,24.72-3.73-3.5,26.94-28.7Z"/>
    </g>
  </g>
</svg>