<?xml version="1.0" encoding="UTF-8"?>
<svg id="Layer_2" data-name="Layer 2" xmlns="http://www.w3.org/2000/svg" viewBox="0 0 125.08 101.05">
  <defs>
    <style>
      .cls-1 {
        fill: #e9a28e;
      }

      .cls-2 {
        fill: #f7bca4;
      }

      .cls-3 {
        fill: #fbdcc5;
      }

      .cls-4 {
        fill: #fde6d2;
      }

      .cls-5 {
        fill: #997a5f;
      }

      .cls-6 {
        fill: #f9ccae;
      }

      .cls-7 {
        fill: #f5b09b;
      }
    </style>
  </defs>
  <g id="Layer_1-2" data-name="Layer 1">
    <g id="pig-svgrepo-com">
      <g id="Group_3" data-name="Group 3">
        <g id="Group_1" data-name="Group 1">
          <path id="Path_11" data-name="Path 11" class="cls-4" d="m44.05,22.01c0-5.34-4-22.01-14.01-22.01H10.7C2.7,0-2.64,11.34,1.36,18.01c3.53,5.89,5,6.67,7,9.34s7.67,7.34,13.67,7.34h22.01v-12.67h0Z"/>
          <path id="Path_12" data-name="Path 12" class="cls-6" d="m22.04,25.68c-2.24,0-5.51-2.45-6.47-3.73-.85-1.14-1.61-2-2.28-2.76-1.61-1.78-3.02-3.73-4.2-5.81-.16-.8-.06-1.63.29-2.37.27-.8.77-1.49,1.44-2h19.15c2.16,1.04,5.08,9.11,5.08,13.01v3.67s-13.01,0-13.01,0Z"/>
        </g>
        <g id="Group_2" data-name="Group 2">
          <path id="Path_13" data-name="Path 13" class="cls-4" d="m81.03,22.01c0-5.34,4-22.01,14.01-22.01h19.34c8,0,13.34,11.34,9.34,18.01-3.53,5.89-5,6.67-7,9.34s-7.67,7.34-13.67,7.34h-22.01v-12.67Z"/>
          <path id="Path_14" data-name="Path 14" class="cls-6" d="m103.05,25.68c2.24,0,5.51-2.45,6.47-3.73.85-1.14,1.61-2,2.28-2.76,1.61-1.78,3.02-3.73,4.2-5.81.16-.8.06-1.63-.29-2.37-.27-.8-.77-1.49-1.45-2h-19.15c-2.16,1.04-5.08,9.11-5.08,13.01v3.67h13.01Z"/>
        </g>
      </g>
      <g id="Group_4" data-name="Group 4">
        <path id="Path_15" data-name="Path 15" class="cls-4" d="m62.54,101.05c-27.26,0-51.7-12.95-51.7-41.02,0-19.9,13.44-43.54,29.62-51.88,6.65-3.43,14.15-2.81,22.08-2.81v95.71Z"/>
        <path id="Path_16" data-name="Path 16" class="cls-3" d="m62.54,101.05c27.26,0,51.7-12.95,51.7-41.02,0-19.9-13.44-43.54-29.62-51.88-6.65-3.43-14.15-2.81-22.08-2.81v95.71Z"/>
      </g>
      <g id="Group_5" data-name="Group 5">
        <path id="Path_17" data-name="Path 17" class="cls-5" d="m43.3,50.13c0,2.18-1.76,3.94-3.94,3.94-2.18,0-3.94-1.76-3.94-3.94,0-2.18,1.76-3.94,3.94-3.94h0c2.18,0,3.94,1.76,3.94,3.94Z"/>
        <path id="Path_18" data-name="Path 18" class="cls-5" d="m89.66,50.13c0,2.17-1.76,3.94-3.94,3.94s-3.94-1.76-3.94-3.94c0-1.03.41-2.03,1.13-2.76.33-.34.72-.61,1.15-.81,1.97-.91,4.32-.05,5.23,1.92.24.52.36,1.08.36,1.65h0Z"/>
      </g>
      <path id="Path_19" data-name="Path 19" class="cls-7" d="m81.55,70.33c0,10.45-8.51,11.88-19.01,11.88s-19-2.26-19-11.88c0-7.85,8.51-15.47,19.01-15.47s19,7.62,19,15.47Z"/>
      <path id="Path_20" data-name="Path 20" class="cls-2" d="m81.55,67.66c0,10.45-8.51,11.88-19.01,11.88s-19-2.27-19-11.88c0-7.85,8.51-15.47,19.01-15.47s19,7.61,19,15.47Z"/>
      <g id="Group_6" data-name="Group 6">
        <path id="Path_21" data-name="Path 21" class="cls-1" d="m57.81,68.86c0,2.18-1.76,3.94-3.94,3.94-2.18,0-3.94-1.76-3.94-3.94,0-1.03.41-2.03,1.13-2.76.33-.34.72-.61,1.15-.81,1.98-.92,4.32-.06,5.23,1.92.24.52.36,1.08.37,1.65h0Z"/>
        <path id="Path_22" data-name="Path 22" class="cls-1" d="m75.15,68.86c0,2.18-1.76,3.94-3.94,3.94-2.18,0-3.94-1.76-3.94-3.94,0-2.18,1.76-3.94,3.94-3.94h0c2.17,0,3.94,1.76,3.94,3.94h0Z"/>
      </g>
    </g>
  </g>
</svg>