<?xml version="1.0" encoding="UTF-8"?>
<svg id="Layer_2" data-name="Layer 2" xmlns="http://www.w3.org/2000/svg" viewBox="0 0 126.52 127.29">
  <defs>
    <style>
      .cls-1 {
        fill: #f8dbc0;
      }

      .cls-2 {
        fill: #f8ede2;
      }

      .cls-3 {
        fill: #8b7b67;
      }

      .cls-4 {
        fill: #4f4b4a;
      }

      .cls-5 {
        fill: #625549;
      }

      .cls-6 {
        fill: #efcdae;
      }

      .cls-7 {
        fill: #fffdf9;
      }

      .cls-8 {
        fill: #342928;
      }

      .cls-9 {
        fill: #ece1d4;
      }

      .cls-10 {
        fill: #6f6254;
      }
    </style>
  </defs>
  <g id="Layer_1-2" data-name="Layer 1">
    <g id="cow-svgrepo-com">
      <g id="Group_7" data-name="Group 7">
        <path id="Path_23" data-name="Path 23" class="cls-9" d="m75.16,117.72h-15.09v9.58h15.09c2.64.04,4.82-2.07,4.86-4.72s-2.07-4.82-4.72-4.86c-.05,0-.09,0-.14,0Z"/>
        <path id="Path_24" data-name="Path 24" class="cls-2" d="m49.63,117.72c-2.64.04-4.76,2.21-4.72,4.86.04,2.59,2.13,4.68,4.72,4.72h10.44v-9.58h-10.44Z"/>
      </g>
      <path id="Path_25" data-name="Path 25" class="cls-1" d="m45.7,21.42c-8.94,0-17.87-10.64-14.47-18.72,1.28-2.97-.43-3.83-3.83-.85-3.4,2.98-9.79,20.42,11.07,29.79l7.24-10.21Z"/>
      <path id="Path_26" data-name="Path 26" class="cls-10" d="m4.84,27.49c3.19-.85,15.75-2.13,25.53,3.4,2.68,1.52,4.04,2.13,6.38-.21,3.83-3.83.15,18.94-1.7,18.94h-13.62c-7.24,0-13.97-3.93-17.02-7.66-3.83-4.68-7.84-12.26.43-14.47Z"/>
      <g id="Group_8" data-name="Group 8">
        <path id="Path_27" data-name="Path 27" class="cls-10" d="m45.69,19.38h-.26c-4.34,0-5.92,1.97-7.5,5.52s-6.03,17.69-7.1,20.11c-1.58,3.55-1.57,7.5-1.57,12.62v30.92c0,2.59,1.67,5.41,4.31,8.02.53.53,1.09,1.05,1.66,1.55,33.65-34.21,18.24-69.22,10.46-78.74Z"/>
        <path id="Path_28" data-name="Path 28" class="cls-7" d="m45.69,19.38c7.78,9.53,23.2,44.54-10.46,78.74,3.04,2.72,6.25,5.1,6.25,6.6,0,3.15-1.57,5.52-1.57,9.86s3.87,7.32,10.87,7.32h13.98V19.38h-19.07Z"/>
      </g>
      <g id="Group_10" data-name="Group 10">
        <path id="Path_29" data-name="Path 29" class="cls-6" d="m79.12,21.42c8.94,0,17.87-10.64,14.47-18.72-1.28-2.97.43-3.83,3.83-.85,3.4,2.98,9.79,20.42-11.06,29.79l-7.24-10.21Z"/>
        <path id="Path_30" data-name="Path 30" class="cls-3" d="m92.48,59.34c.17.46.26.95.26,1.45,0,2.47-2,4.47-4.47,4.47s-4.47-2-4.47-4.47c0-.1.03-.21.03-.31,3.23-2.68,6.49-1.79,8.64-1.14Z"/>
        <g id="Group_9" data-name="Group 9">
          <path id="Path_31" data-name="Path 31" class="cls-2" d="m88.71,29.79c-.74-2.12-1.4-3.9-1.83-4.88-1.58-3.55-3.15-5.52-7.49-5.52h-19.32v102.51h13.98c6.99,0,10.87-2.98,10.87-7.32,0-3.49-1.01-5.7-1.41-8.08-26.89-35.43-7.3-70.28,5.21-76.72Z"/>
          <path id="Path_32" data-name="Path 32" class="cls-5" d="m91.25,96.57c2.64-2.61,4.31-5.43,4.31-8.02v-30.92c0-5.12,0-9.07-1.57-12.62-.78-1.75-3.33-9.65-5.27-15.23-12.51,6.43-32.1,41.29-5.21,76.72-.11-.59-.16-1.18-.17-1.78,0-1.77,4.54-4.79,7.91-8.15Z"/>
        </g>
      </g>
      <path id="Path_33" data-name="Path 33" class="cls-3" d="m11.65,40.26c-1.49-1.49-2.13-5.96,1.7-5.53s13.62,4.25,13.62,5.95-7.79,7.1-15.32-.42Z"/>
      <path id="Path_34" data-name="Path 34" class="cls-5" d="m121.68,27.49c-3.2-.85-15.75-2.13-25.53,3.4-2.68,1.52-4.04,2.13-6.38-.21-3.84-3.83-.15,18.94,1.71,18.94h13.61c7.23,0,13.97-3.93,17.02-7.66,3.83-4.68,7.83-12.26-.42-14.47Z"/>
      <path id="Path_35" data-name="Path 35" class="cls-3" d="m114.87,40.26c1.49-1.49,2.13-5.96-1.7-5.53s-13.62,4.25-13.62,5.95,7.8,7.1,15.32-.42Z"/>
      <g id="Group_11" data-name="Group 11">
        <path id="Path_36" data-name="Path 36" class="cls-8" d="m32.34,59.34c-.17.46-.26.95-.26,1.45,0,2.47,2,4.47,4.47,4.47s4.47-2,4.47-4.47c0-.1-.02-.21-.03-.31-3.23-2.68-6.49-1.79-8.64-1.14Z"/>
        <path id="Path_37" data-name="Path 37" class="cls-8" d="m92.48,59.34c.17.46.26.95.26,1.45,0,2.47-2,4.47-4.47,4.47s-4.47-2-4.47-4.47c0-.1.03-.21.03-.31,3.23-2.68,6.49-1.79,8.64-1.14Z"/>
      </g>
      <g id="Group_12" data-name="Group 12">
        <path id="Path_38" data-name="Path 38" class="cls-4" d="m50.75,107.25c3.91-1.51,4.63,7.62,2.51,8.38-3.91,1.4-6.14-6.98-2.51-8.38Z"/>
        <path id="Path_39" data-name="Path 39" class="cls-4" d="m72.71,107.25c-3.91-1.51-4.64,7.62-2.51,8.38,3.91,1.4,6.15-6.98,2.51-8.38Z"/>
      </g>
    </g>
  </g>
</svg>