<?xml version="1.0" encoding="UTF-8"?>
<svg id="Layer_2" data-name="Layer 2" xmlns="http://www.w3.org/2000/svg" viewBox="0 0 135.37 146.01">
  <defs>
    <style>
      .cls-1 {
        fill: #bb2f2d;
      }

      .cls-2 {
        fill: #e9e84a;
      }

      .cls-3 {
        fill: #e0e0e0;
      }

      .cls-4 {
        fill: #dfdcb8;
      }
    </style>
  </defs>
  <g id="Layer_1-2" data-name="Layer 1">
    <g id="chicken-svgrepo-com">
      <g id="Group_13" data-name="Group 13">
        <path id="Path_40" data-name="Path 40" class="cls-2" d="m.02,48.26s-.02.06-.02.09c9.14,0,19.79-6.85,19.79-6.85l-1.53-6.72L.02,48.26Z"/>
        <path id="Path_41" data-name="Path 41" class="cls-2" d="m15.99,24.74S2.38,39.86.02,48.26l18.24-13.48-2.28-10.04Z"/>
      </g>
      <path id="Path_42" data-name="Path 42" class="cls-1" d="m15.99,24.74L9.13,5.71l9.9,1.9L23.98,0l6.85,6.09,6.85-4.95,3.42,6.85,6.09-1.14-4.95,19.03-26.26-1.14Z"/>
      <path id="Path_43" data-name="Path 43" class="cls-1" d="m27.02,59.19c.06,5.57-4.42,10.13-9.99,10.19-5.57.06-10.13-4.42-10.19-9.99,0-.07,0-.13,0-.2,0-5.57,4.51-17.7,10.09-17.7s10.09,12.12,10.09,17.7Z"/>
      <path id="Path_44" data-name="Path 44" class="cls-4" d="m135.37,56.72c0,6.85-16.73-6.1-22.84,7.61,8.38,0,15.22,10.65,9.14,10.65-4.88,0-14.46,4.18-16.36,19.03-1.84,14.35-14.85,35.78-39.22,38.06-1.16.1-2.28.19-3.41.23-1.55.06-3.08.04-4.57-.02-7.08-.25-14.03-1.93-20.44-4.94-9.78-4.7-16.63-12.04-19.32-19.34-.24-.59-.44-1.19-.6-1.8-3.81-13.71,1.35-26,4.82-35.27.54-1.43,1.26-3.02,2.01-4.65.17-.39.35-.76.52-1.16v-.02c.7-1.51,1.32-3.07,1.84-4.65v-.02c1.08-3.39,1.22-6.39-1.22-8.03-4.98-.71-9.46-3.4-12.43-7.47-.25-.32-.47-.66-.68-1.01-.74-1.13-1.35-2.35-1.8-3.62-.74-2.04-1.12-4.2-1.12-6.37,0-.58.02-1.16.08-1.74.87-9.6,8.94-16.94,18.57-16.92,5.85,0,11.31,2.09,14.98,6.43,1.34,1.58,2.39,3.38,3.12,5.32.95,2.5,1.43,8.48,2.23,15.16,1.43,12.18,3.89,26.72,12.1,26.72,16.73,0,16.73-28.94,39.57-33.51,9.76-1.94,17.56.39,23.31,4.28,3.28,2.2,6.1,5.02,8.29,8.29,2.25,3.38,3.41,6.64,3.41,8.75Z"/>
      <path id="Path_45" data-name="Path 45" class="cls-2" d="m58.11,129.29v8.59l-11.17,6.6h11.67l7.1,1.52-3.05-7.61v-9.1h-4.56Z"/>
      <path id="Path_46" data-name="Path 46" class="cls-3" d="m41.87,96.3c3.04,3.05,10.66,11.67,28.42,11.67s23.85-13.7,18.27-16.24c0-1.52,11.67-8.63,1.01-13.2,8.12-.51,7.11,12.69,3.55,13.7,4.57,4.57-2.62,18.58-19.79,20.3-15.22,1.53-30.96-7.1-31.47-16.23Z"/>
    </g>
  </g>
</svg>