<?xml version="1.0" encoding="UTF-8"?>
<svg id="Layer_2" data-name="Layer 2" xmlns="http://www.w3.org/2000/svg" viewBox="0 0 278.78 127.14">
  <defs>
    <style>
      .cls-1 {
        fill: #fff;
      }

      .cls-2 {
        isolation: isolate;
      }
    </style>
  </defs>
  <g id="Layer_1-2" data-name="Layer 1">
    <g id="Chomp_" data-name="Chomp " class="cls-2">
      <g class="cls-2">
        <path class="cls-1" d="m69.99,84.05h-16.45v-10.99c0-3.2-.18-5.19-.53-5.98-.35-.79-1.13-1.19-2.32-1.19-1.35,0-2.21.48-2.58,1.45-.37.96-.55,3.05-.55,6.25v29.38c0,3.07.18,5.08.55,6.02.36.94,1.18,1.41,2.46,1.41s2.02-.47,2.4-1.41c.38-.94.57-3.15.57-6.62v-7.95h16.45v2.46c0,6.55-.46,11.19-1.39,13.93-.92,2.74-2.97,5.14-6.13,7.2-3.16,2.06-7.06,3.09-11.7,3.09s-8.79-.87-11.91-2.62-5.2-4.16-6.21-7.25-1.52-7.73-1.52-13.93v-18.48c0-4.56.16-7.97.47-10.25.31-2.28,1.24-4.47,2.79-6.58,1.55-2.11,3.7-3.77,6.45-4.98,2.75-1.21,5.9-1.82,9.47-1.82,4.84,0,8.84.94,11.99,2.81,3.15,1.87,5.22,4.21,6.21,7,.99,2.79,1.48,7.14,1.48,13.05v6.01Z"/>
        <path class="cls-1" d="m91.2,56.52v14.23c1.35-1.25,2.82-2.19,4.39-2.82,1.58-.63,3.26-.94,5.06-.94,2.76,0,5.11.7,7.05,2.11,1.94,1.41,3.12,3.03,3.55,4.86s.64,5.19.64,10.06v35.74h-15.78v-36.48c0-3.02-.15-4.96-.45-5.82-.3-.86-.97-1.29-2.01-1.29-.96,0-1.62.44-1.95,1.33-.34.89-.51,2.64-.51,5.27v36.99h-15.78v-63.24h15.78Z"/>
        <path class="cls-1" d="m153.04,86.13v12.7c0,4.66-.23,8.08-.7,10.25-.47,2.17-1.47,4.21-3.01,6.09-1.54,1.89-3.51,3.28-5.92,4.18-2.41.9-5.18,1.35-8.3,1.35-3.49,0-6.45-.38-8.87-1.15s-4.3-1.93-5.64-3.48c-1.34-1.55-2.3-3.42-2.87-5.62-.57-2.2-.86-5.5-.86-9.9v-13.28c0-4.82.52-8.58,1.56-11.29,1.04-2.71,2.92-4.88,5.62-6.52,2.71-1.64,6.17-2.46,10.39-2.46,3.54,0,6.58.53,9.12,1.58s4.5,2.43,5.88,4.12c1.38,1.69,2.32,3.44,2.83,5.23s.76,4.53.76,8.2Zm-15.78-3.91c0-2.66-.14-4.33-.43-5.02-.29-.69-.9-1.04-1.84-1.04s-1.56.35-1.88,1.04c-.31.69-.47,2.36-.47,5.02v23.4c0,2.45.16,4.04.47,4.79s.92,1.11,1.84,1.11,1.56-.34,1.86-1.02c.3-.68.45-2.13.45-4.38v-23.91Z"/>
        <path class="cls-1" d="m173.82,67.92l-.27,4.93c1.22-1.96,2.68-3.42,4.38-4.4,1.69-.98,3.62-1.47,5.78-1.47,4.22,0,7.54,1.96,9.96,5.87,1.33-1.96,2.83-3.42,4.49-4.4,1.67-.98,3.52-1.47,5.55-1.47,2.68,0,4.9.65,6.66,1.95,1.76,1.3,2.88,2.9,3.38,4.79.49,1.89.74,4.96.74,9.2v36.84h-15.31v-33.79c0-4.43-.15-7.17-.45-8.22-.3-1.05-1-1.58-2.09-1.58s-1.84.52-2.17,1.56c-.33,1.04-.49,3.79-.49,8.24v33.79h-15.31v-32.93c0-5.08-.12-8.12-.37-9.14-.25-1.02-.93-1.52-2.05-1.52-.7,0-1.3.27-1.8.8-.5.53-.77,1.19-.82,1.95-.05.77-.08,2.4-.08,4.9v35.94h-15.31v-51.84h15.59Z"/>
        <path class="cls-1" d="m235.97,67.92l-.27,4.58c1.41-1.85,2.96-3.23,4.65-4.15,1.69-.91,3.54-1.37,5.55-1.37,2.45,0,4.56.66,6.35,1.97,1.78,1.32,2.9,2.83,3.34,4.55.44,1.72.66,4.64.66,8.75v21.84c0,4.71-.28,8.07-.84,10.06-.56,1.99-1.71,3.58-3.44,4.77-1.73,1.18-3.82,1.78-6.27,1.78-1.95,0-3.76-.46-5.43-1.37-1.67-.91-3.19-2.27-4.57-4.07v11.88h-15.78v-59.22h16.05Zm4.49,15.08c0-3.2-.12-5.14-.35-5.82-.23-.68-.89-1.02-1.95-1.02s-1.71.39-2.01,1.17c-.3.78-.45,2.67-.45,5.66v21.48c0,3.12.16,5.08.47,5.86s.99,1.17,2.03,1.17,1.65-.36,1.89-1.07c.25-.72.37-2.45.37-5.21v-22.23Z"/>
        <path class="cls-1" d="m278.78,56.52l-2.58,47.62h-12.19l-2.58-47.62h17.34Zm-1.29,50.59v12.66h-14.77v-12.66h14.77Z"/>
      </g>
    </g>
    <g id="chef-hat-svgrepo-com">
      <path id="Path_1" data-name="Path 1" d="m36.31,17.53c12.86-15.89,35.85,6.72,17.71,19.02,3.7,5.87,10.5,19.74,2.74,24.7-7.69,4.61-16.6,8.62-25.73,7.79-6.91-.8-7.19-8.6-8.4-14-.71-3.35-1.09-6.76-1.85-10.09-16.43,3.44-18.6-15.19-4.65-20.38.2-.08.36-.24.45-.44,2.47-8.2,12.81-11.24,19.73-6.6Zm-15.39,6.41c2.08-.02,9,1.92,6.9,4.92-.51.62-1.38.81-2.11.46-4.52-2.85-10.49-1.49-13.33,3.03-.45.71-.8,1.47-1.05,2.27-2.47,8.73,11.62,7.99,14.23,1.88.47-1.06,1.7-1.54,2.76-1.07.92.4,1.42,1.4,1.2,2.38-.97,2.32-2.7,4.25-4.9,5.46-.72.44-.06,1.58,0,2.25,1.09,4.43,1.92,8.91,2.82,13.38.1.48.27.66.79.67,9.28.12,18.65-2.42,25.99-8.29,1.5-1.22,1.52-1.2.96-3.05-.48-2.09-1.41-4.04-2.72-5.73-.88-1.1-1.64-2.29-2.27-3.56-.17-.43-.35-.61-.85-.47-2.21.51-4.49.6-6.74.29-1.14-.09-1.98-1.09-1.88-2.23.09-1.12,1.07-1.96,2.2-1.89,8.23,1.5,16.95-5.65,12.38-13.82-3.12-4.88-11-6.65-15.59-1.4-1.24.93,2.37,3.1,1.82,8.02-.06,1.11-.96,1.98-2.07,2-1.25-.09-2.19-1.17-2.1-2.42,0-.04,0-.08.01-.11-.33-8.15-12.88-10.05-16.43-2.98h0Zm35.03,28.96c-8,5.96-17.76,9.09-27.73,8.9,2.4,7.75,17.67.42,22.56-1.73,2.85-1.38,5.7-3.58,5.17-7.17Z"/>
      <path id="Path_2" data-name="Path 2" d="m4.18,63.38c-1.09.08-2.05-.74-2.13-1.83-.05-.71.28-1.4.87-1.8,2.85-2.25,5.32-5.13,8.57-6.78.87-.39,1.89,0,2.28.87.25.56.18,1.22-.18,1.72-2.28,2.64-5.26,4.63-7.82,7.01-.42.44-.98.73-1.59.8Z"/>
      <path id="Path_3" data-name="Path 3" d="m75.63,35.88c-.09.68-.51,1.27-1.13,1.57-2.88,1.6-5.75,3.2-8.65,4.77-1.22.66-2.22.5-2.76-.36-1.03-1.52,1.24-3.05,2.55-3.76,2.2-1.32,4.39-2.64,6.61-3.91,1.43-.93,3.46-.38,3.37,1.7Z"/>
      <path id="Path_4" data-name="Path 4" d="m27.18,9.7c.09.81-.37,1.57-1.12,1.88-.71.26-1.51.03-1.98-.56-1.52-2.56-2.63-5.37-3.98-8.03-.58-.91-.31-2.12.6-2.69.91-.58,2.12-.31,2.69.6.06.1.11.2.16.3,1.2,2.8,2.7,5.61,3.63,8.5Z"/>
      <path id="Path_5" data-name="Path 5" d="m72.4,64.99c0,1.92-2.28,2.35-3.62,1.26-1.11-.61-2.22-1.22-3.32-1.85-.96-.46-1.8-1.39-1.33-2.51.26-.69.93-1.13,1.67-1.09,2.03.3,3.76,1.66,5.61,2.48.63.33,1.01.99.99,1.69Z"/>
      <path id="Path_6" data-name="Path 6" d="m60.37,13.42c-4.02-.5-.48-4.6.52-6.41.6-.89,1.8-1.13,2.69-.53.89.6,1.13,1.8.53,2.69-.88,1.13-2.29,4.24-3.75,4.26Z"/>
      <path id="Path_7" data-name="Path 7" d="m24.39,77.71c-1.08.07-2.01-.74-2.09-1.82-.02-.34.04-.67.19-.98.49-.93,1.08-1.8,1.75-2.6.61-.71,1.68-.8,2.4-.19.5.42.71,1.09.54,1.72-.35,1.05-.79,2.07-1.32,3.05-.3.52-.87.84-1.47.83Z"/>
      <path id="Path_8" data-name="Path 8" d="m3.83,27.68c-1.06-.19-2.06-.59-2.97-1.16-.78-.49-1.08-1.49-.69-2.33,1.07-2.32,3.65-.52,5.17.32,1.68,1.18.77,3.43-1.5,3.18Z"/>
      <path id="Path_9" data-name="Path 9" class="cls-1" d="m20.91,23.95c3.55-7.08,16.09-5.18,16.43,2.97-.15,1.24.73,2.37,1.97,2.52.04,0,.08,0,.12.01,1.11-.02,2.02-.89,2.07-2,.54-4.96-3.06-7.04-1.82-8.02,4.59-5.25,12.47-3.47,15.59,1.4,4.56,8.18-4.13,15.31-12.38,13.82-1.14-.09-2.13.76-2.21,1.9s.76,2.13,1.9,2.21c2.24.32,4.53.22,6.74-.29.49-.15.69.04.85.47.63,1.26,1.39,2.46,2.27,3.56,1.31,1.69,2.24,3.64,2.72,5.73.56,1.85.53,1.83-.96,3.05-7.34,5.87-16.7,8.41-25.99,8.29-.52,0-.7-.19-.79-.67-.94-5.07-2.11-10.09-3.16-15.13-.02-.15.18-.4.34-.49,2.21-1.21,3.94-3.14,4.91-5.46.26-1.13-.45-2.25-1.58-2.5-.98-.22-1.98.28-2.38,1.2-2.6,6.1-16.7,6.84-14.23-1.88,1.6-5.1,7.02-7.93,12.12-6.34.8.25,1.56.6,2.26,1.05.73.35,1.6.16,2.11-.47,2.09-2.99-4.8-4.94-6.9-4.92Z"/>
      <path id="Path_10" data-name="Path 10" class="cls-1" d="m55.94,52.9c.53,3.59-2.31,5.78-5.17,7.17-4.89,2.15-20.15,9.48-22.56,1.73,9.97.18,19.73-2.95,27.73-8.9Z"/>
    </g>
  </g>
</svg>