<?xml version="1.0" encoding="UTF-8"?>
<svg id="Layer_2" data-name="Layer 2" xmlns="http://www.w3.org/2000/svg" viewBox="0 0 58.56 60.19">
  <defs>
    <style>
      .cls-1 {
        fill: #fff;
      }
    </style>
  </defs>
  <g id="Layer_1-2" data-name="Layer 1">
    <path id="Path_1" data-name="Path 1" d="m28.11,13.59c9.96-12.31,27.76,5.21,13.71,14.73,2.87,4.54,8.13,15.29,2.12,19.13-5.95,3.57-12.85,6.68-19.93,6.03-5.35-.62-5.57-6.66-6.5-10.84-.55-2.59-.84-5.24-1.44-7.82-12.73,2.66-14.4-11.76-3.6-15.78.16-.06.28-.18.35-.34,1.91-6.35,9.92-8.71,15.28-5.11Zm-11.92,4.97c1.61-.02,6.97,1.48,5.35,3.81-.4.48-1.07.63-1.63.36-3.5-2.2-8.12-1.15-10.33,2.34-.34.55-.62,1.14-.81,1.76-1.91,6.76,9,6.18,11.02,1.46.36-.82,1.31-1.19,2.13-.83.71.31,1.1,1.09.93,1.84-.75,1.8-2.09,3.29-3.8,4.23-.56.34-.04,1.22,0,1.74.84,3.43,1.49,6.9,2.19,10.36.07.37.21.51.61.52,7.25.24,14.36-2.02,20.12-6.42,1.16-.95,1.18-.93.75-2.36-.37-1.61-1.09-3.13-2.11-4.44-.68-.85-1.27-1.78-1.76-2.76-.13-.33-.27-.47-.66-.36-1.71.39-3.48.47-5.22.22-.88-.12-1.49-.92-1.38-1.79.11-.81.8-1.41,1.62-1.39,6.37,1.16,13.12-4.38,9.58-10.7-2.42-3.78-8.52-5.15-12.07-1.09-.96.72,1.83,2.4,1.41,6.21-.04.86-.75,1.53-1.6,1.55-.97-.07-1.69-.91-1.63-1.88,0-.03,0-.06,0-.09-.27-6.31-9.98-7.78-12.73-2.3h0Zm27.13,22.43c-6.2,4.61-13.75,7.04-21.48,6.89,1.86,6,13.69.33,17.47-1.34,2.21-1.07,4.41-2.77,4-5.55Z"/>
    <path id="Path_2" data-name="Path 2" d="m3.23,49.09c-.85.06-1.59-.57-1.65-1.42-.04-.55.21-1.08.67-1.39,2.21-1.74,4.12-3.97,6.64-5.25.68-.3,1.46,0,1.76.68.19.44.14.94-.14,1.33-1.76,2.04-4.07,3.59-6.05,5.43-.33.34-.76.56-1.23.62Z"/>
    <path id="Path_3" data-name="Path 3" d="m58.56,27.79c-.07.53-.4.99-.88,1.21-2.23,1.24-4.46,2.48-6.7,3.7-.95.51-1.72.39-2.14-.28-.79-1.17.96-2.36,1.97-2.92,1.7-1.02,3.4-2.04,5.12-3.03,1.11-.73,2.68-.3,2.62,1.31Z"/>
    <path id="Path_4" data-name="Path 4" d="m21.04,7.52c.07.62-.29,1.22-.87,1.45-.55.2-1.17.03-1.54-.43-1.18-1.98-2.04-4.16-3.08-6.22-.45-.7-.24-1.64.46-2.09s1.64-.24,2.09.46c.05.08.09.16.12.24.93,2.17,2.1,4.34,2.82,6.58Z"/>
    <path id="Path_5" data-name="Path 5" d="m56.07,50.33c0,1.48-1.77,1.82-2.8.98-.86-.47-1.72-.95-2.57-1.43-.74-.35-1.39-1.08-1.03-1.94.2-.53.72-.87,1.29-.84,1.57.23,2.91,1.28,4.35,1.92.49.25.78.76.76,1.31Z"/>
    <path id="Path_6" data-name="Path 6" d="m46.74,10.4c-3.11-.39-.37-3.57.41-4.97.46-.69,1.4-.88,2.09-.41.69.46.88,1.4.41,2.09-.69.88-1.78,3.29-2.91,3.3Z"/>
    <path id="Path_7" data-name="Path 7" d="m18.88,60.19c-.84.06-1.56-.58-1.62-1.41-.02-.26.03-.52.15-.76.38-.72.83-1.39,1.36-2.02.47-.55,1.31-.61,1.86-.14.38.33.54.84.42,1.32-.27.82-.61,1.61-1.02,2.36-.23.41-.67.65-1.14.64Z"/>
    <path id="Path_8" data-name="Path 8" d="m2.97,21.44c-.82-.15-1.6-.46-2.3-.9-.61-.38-.83-1.15-.53-1.8.83-1.8,2.83-.41,4,.24,1.3.91.59,2.66-1.17,2.45Z"/>
    <path id="Path_9" data-name="Path 9" class="cls-1" d="m16.19,18.55c2.75-5.48,12.46-4.01,12.72,2.3-.12.96.57,1.84,1.53,1.96.03,0,.06,0,.09,0,.86-.01,1.56-.69,1.61-1.55.42-3.84-2.37-5.45-1.41-6.21,3.56-4.07,9.66-2.69,12.07,1.09,3.53,6.34-3.2,11.85-9.58,10.7-.88-.02-1.61.68-1.63,1.57-.02.82.58,1.51,1.39,1.62,1.74.24,3.51.17,5.22-.22.38-.11.54.03.66.36.49.98,1.07,1.9,1.76,2.76,1.02,1.31,1.74,2.82,2.11,4.44.43,1.43.41,1.41-.75,2.36-5.77,4.4-12.88,6.67-20.12,6.42-.41,0-.54-.15-.61-.52-.73-3.93-1.63-7.82-2.45-11.72-.01-.12.14-.31.27-.38,1.71-.94,3.05-2.43,3.8-4.23.2-.87-.35-1.74-1.22-1.94-.76-.17-1.53.22-1.84.93-2.02,4.73-12.93,5.3-11.02-1.46,1.23-3.95,5.43-6.14,9.38-4.91.62.19,1.21.47,1.76.81.56.27,1.24.12,1.63-.36,1.62-2.32-3.71-3.83-5.35-3.81Z"/>
    <path id="Path_10" data-name="Path 10" class="cls-1" d="m43.32,40.98c.41,2.78-1.79,4.48-4,5.55-3.79,1.67-15.61,7.34-17.47,1.34,7.72.14,15.28-2.28,21.47-6.89Z"/>
  </g>
</svg>